<?xml version="1.0" encoding="UTF-8"?><svg id="Layer_2" xmlns="http://www.w3.org/2000/svg" viewBox="0 0 18.02 18.02"><g id="Layer_1-2"><path d="m18.01,9.02s0-.02,0-.03v-.22s0-.03,0-.04l-2.59-6.02s-.02-.03-.03-.04c0,0,0-.01-.01-.02v-.02s-.04-.09-.08-.1c0,0-.01-.01-.02-.01L9.1,0s-.02,0-.04,0h-.27s-.03,0-.04,0L2.7,2.56l-.05.02s-.02.01-.03.02l-.05.03s-.02.01-.03.02l-.05.05s-.02.02-.02.04c0,.01-.02.03-.03.06L0,8.85s0,.05,0,.06v.05s0,.05,0,.05v.17s0,.03,0,.04l2.54,6.07s.02.03.03.04c0,.01.02.04.04.06l.1.1s.02.01.02.02l6.13,2.48s.03,0,.04,0c.08.03.14.03.21.03h.08s.03,0,.04,0l6.05-2.55.1-.05s.02-.01.02-.02l.08-.08s.04-.04.05-.09c0-.01.02-.03.03-.06l2.44-6.06s0-.05,0-.06,0-.03,0-.04Zm-3.15-.55h-.99l-1.12-2.64,1.99-2.04.07-.07,1.55,3.67.47,1.06-1.97.02Zm1.98.91l-.97,2.41-.95,2.39-2.12-2.08,1.08-2.69,2.96-.02Zm-4.75-4.21l-2.66-1.08-.02-2.96,2.38.97,2.38.95-2.08,2.12Zm.97,3.79l-1.17,2.88-2.89,1.22-2.88-1.17-1.22-2.89,1.17-2.88,2.89-1.22,2.88,1.17,1.22,2.88Zm-4.57-4.89l-1.33.56-1.33.58-2.03-1.98-.09-.09,3.78-1.61.99-.41.02,1.95v.99Zm-5.41,5.4h.99l1.12,2.64-1.99,2.04-.07.08-1.6-3.76-.41-.99,1.96-.02Zm-1.95-.91l.97-2.38.95-2.39,2.12,2.08-1.08,2.66-2.96.02Zm4.74,4.23l2.69,1.08.02,2.96-2.41-.97-2.39-.95,2.08-2.12Zm3.62,1.1l2.64-1.15,2.03,1.98.09.09-3.68,1.56-1.06.48-.02-1.97v-.99Z"/></g></svg>