<?xml version="1.0" encoding="UTF-8"?><svg id="Layer_2" xmlns="http://www.w3.org/2000/svg" viewBox="0 0 23.42 9.79"><g id="Layer_1-2"><path d="m4.9,9.79c-.46,0-.92-.18-1.27-.53L.53,6.17c-.7-.7-.7-1.84,0-2.55L3.62.53c.7-.7,1.85-.7,2.55,0,.7.7.7,1.84,0,2.55l-.02.02h11.13l-.02-.02c-.7-.7-.7-1.84,0-2.55.7-.7,1.84-.7,2.55,0h0s3.1,3.1,3.1,3.1c.34.34.53.8.53,1.27s-.19.94-.53,1.27l-3.1,3.1c-.7.7-1.84.7-2.55,0-.7-.7-.7-1.84,0-2.55l.02-.02H6.15l.02.02c.7.7.7,1.84,0,2.55-.35.35-.81.53-1.27.53Zm0-8.79c-.21,0-.41.08-.57.23l-3.1,3.1c-.31.31-.31.82,0,1.13l3.1,3.1c.31.31.82.31,1.13,0,.31-.31.31-.82,0-1.13l-1.73-1.73h15.96l-1.73,1.73c-.31.31-.31.82,0,1.13.31.31.82.31,1.13,0l3.1-3.1c.15-.15.24-.36.24-.57s-.09-.42-.24-.57l-3.1-3.1c-.31-.31-.82-.31-1.13,0-.31.31-.31.82,0,1.13l1.73,1.73H3.73l1.73-1.73c.31-.31.31-.82,0-1.13-.16-.16-.36-.23-.57-.23Z"/></g></svg>