<?xml version="1.0" encoding="UTF-8"?><svg id="Layer_2" xmlns="http://www.w3.org/2000/svg" viewBox="0 0 18.61 18.94"><g id="Layer_1-2"><path d="m16.95,8.14c.09.28.35.47.64.47.07,0,.13,0,.19-.03.26-.08.44-.31.47-.57.02-.27-.11-.52-.35-.65-.24-.13-.53-.1-.74.08-.21.17-.29.45-.21.71Z"/><path d="m14.7,4.55c.23,0,.45-.12.57-.32.12-.2.13-.44.02-.65-.1-.21-.31-.34-.54-.36-.23-.02-.45.08-.59.27-.15.2-.17.47-.06.69.11.22.34.36.59.36Z"/><path d="m10.62,5.26c0-.37-.3-.66-.66-.66s-.66.3-.66.66v5.05c0,.28.18.53.45.63l3.56,1.24c.17.06.35.05.51-.03.16-.08.28-.21.34-.38.06-.17.05-.35-.03-.51-.08-.16-.21-.28-.38-.34l-3.12-1.09v-4.57Z"/><path d="m16.47,6.35c.14,0,.27-.04.39-.12.3-.22.37-.63.15-.93-.13-.19-.36-.29-.59-.28-.23.02-.44.15-.54.36-.11.21-.1.45.03.65.12.2.34.32.57.32Z"/><path d="m12.46,3.39c.25,0,.48-.14.59-.36.11-.22.09-.49-.05-.69-.15-.2-.39-.3-.64-.27-.25.04-.45.21-.53.45-.06.2-.03.42.1.59.12.17.32.27.53.28Z"/><path d="m17.95,9.78c-.18,0-.35.06-.47.19-.13.12-.2.29-.2.47h0c0,.18.06.35.19.48.12.13.29.2.47.2h.01c.37,0,.67-.29.67-.66,0-.37-.29-.67-.66-.67Z"/><path d="m17.72,12.3c-.17-.06-.35-.05-.51.03-.16.08-.28.21-.34.38-.07.2-.04.43.09.6.12.18.33.28.54.28.32,0,.59-.24.65-.55.05-.32-.13-.63-.43-.74Z"/><path d="m15.77,14.75c-1.54,2.01-4,3.08-6.52,2.83-2.51-.25-4.72-1.77-5.84-4.04-1.12-2.27-.99-4.95.35-7.1,1.33-2.15,3.68-3.45,6.21-3.45.37,0,.66-.3.66-.66s-.3-.66-.66-.66c-2.02,0-3.95.71-5.47,1.95l-1.46-1.46,1.09-1.09c.24-.24.24-.64,0-.88s-.64-.24-.88,0L.18,3.24c-.24.24-.24.64,0,.88.24.24.64.24.88,0l1.09-1.09,1.44,1.44c-.36.39-.68.81-.96,1.27-1.58,2.54-1.73,5.71-.41,8.39,1.32,2.68,3.93,4.48,6.9,4.77,2.97.29,5.88-.97,7.7-3.34.22-.29.17-.71-.12-.93-.29-.22-.71-.17-.93.12Z"/></g></svg>