<?xml version="1.0" encoding="UTF-8"?><svg id="Layer_2" xmlns="http://www.w3.org/2000/svg" viewBox="0 0 16.79 18.56"><g id="Layer_1-2"><path d="m16.79,9.18c0-1.81-.59-3.61-1.69-5.05.09-.85-.14-1.71-.64-2.41-.18-.24-.43-.44-.72-.54V0H3.06v1.19c-.28.11-.53.3-.71.55-.48.68-.71,1.52-.64,2.35C.41,5.81-.18,7.94.05,10.09c.23,2.11,1.24,4.04,2.85,5.43l-.59.8.31.25h.01s0,.01,0,.01c1.55,1.21,3.4,1.89,5.37,1.97.14,0,.27,0,.41,0,1.84,0,3.62-.54,5.16-1.55l.3-.2-.54-.84c2.17-1.57,3.46-4.1,3.46-6.78Zm-3.04-5.68v-1.46s.07.09.11.14c.34.48.52,1.04.52,1.62,0,.12,0,.24-.03.37,0,.03-.01.06-.02.1,0,.03-.02.06-.03.09,0,.03-.02.05-.03.08v.03s-.03.03-.04.05c-.01.02-.02.03-.05.06,0,0-.01.01-.02.01h0c-.32-.4-.67-.76-1.06-1.08h.65Zm-.81-2.71v1.93h-3.13c.2-.3.29-.66.25-1.02-.03-.33-.16-.65-.37-.9h3.25Zm-4.51.16c.47.01.85.39.86.86.02.47-.33.87-.79.91h-.13c-.47-.04-.82-.44-.81-.91.02-.47.4-.84.87-.86Zm-1.25-.16c-.21.25-.34.57-.37.9-.03.36.06.72.25,1.02h-3.21V.79s3.32,0,3.32,0Zm-4.23,1.4l.03-.04s.06-.07.09-.1v1.46h.65c-.39.32-.74.68-1.05,1.07-.01-.01-.02-.02-.03-.04-.03-.04-.05-.07-.06-.11-.01-.03-.02-.06-.04-.09-.01-.03-.02-.06-.03-.09,0-.03-.01-.05-.02-.08v-.02c-.1-.69.06-1.39.46-1.97Zm.13,3.06h0c.52-.71,1.16-1.29,1.92-1.74h6.79c1.99,1.19,3.22,3.36,3.22,5.67,0,2.07-.99,4.05-2.65,5.29l-.23-.36-.35.23c-1.1.72-2.37,1.06-3.67,1-1.32-.06-2.57-.54-3.6-1.37l-.3-.24-.25.34c-1.19-1.08-1.95-2.55-2.13-4.16-.19-1.67.26-3.33,1.26-4.67Zm9.54,10.31l-.31.2.53.82c-1.35.81-2.87,1.23-4.44,1.23-.12,0-.25,0-.37,0-1.7-.07-3.32-.64-4.7-1.64l.58-.78-.28-.22c-1.54-1.22-2.53-2.97-2.81-4.91-.26-1.85.16-3.73,1.19-5.29.04.06.09.11.14.16l.06.06s0,0,0,0c-.98,1.5-1.37,3.3-1.1,5.08.27,1.83,1.22,3.48,2.67,4.64l.3.24.26-.36c1.09.79,2.38,1.23,3.73,1.3,1.35.06,2.67-.27,3.84-.95l.24.38.31-.21c1.62-1.08,2.77-2.79,3.14-4.71.36-1.85-.01-3.81-1.03-5.4.05-.04.1-.08.14-.13.02-.02.04-.05.06-.08v-.02c.81,1.2,1.24,2.59,1.26,4.03v.17c0,2.57-1.28,4.96-3.42,6.38Z"/></g></svg>