<?xml version="1.0" encoding="UTF-8"?><svg id="Layer_2" xmlns="http://www.w3.org/2000/svg" viewBox="0 0 18.02 18.01"><g id="Layer_1-2"><path d="m3.51,12.73c-.21,0-.41-.13-.49-.33-.08-.2-.04-.42.12-.58l3.73-3.73c.21-.18.52-.17.72.03.19.19.21.51.03.72l-3.73,3.73c-.1.1-.23.16-.37.16Z"/><path d="m2.02,11.24c-.21,0-.41-.13-.49-.33-.08-.2-.04-.42.12-.58l3.73-3.73h0c.21-.18.52-.17.72.03.2.2.21.51.03.72l-3.73,3.74c-.1.1-.24.15-.38.15Z"/><path d="m.53,9.75c-.21,0-.41-.13-.49-.33-.08-.2-.04-.43.12-.58l3.73-3.73c.21-.18.52-.17.72.03.19.19.21.51.03.72l-3.73,3.73c-.1.1-.23.16-.37.16Z"/><path d="m9.28,7.72c-.14,0-.28-.05-.38-.15l-3.73-3.73c-.18-.21-.17-.52.03-.72.19-.19.51-.21.72-.03l3.73,3.73c.15.15.2.38.12.58-.08.2-.28.33-.49.33h0Z"/><path d="m10.77,6.23c-.14,0-.27-.05-.38-.15l-3.73-3.73h0c-.21-.21-.21-.54,0-.75.21-.21.54-.21.75,0l3.74,3.74c.15.15.2.38.12.58-.08.2-.28.33-.49.33Z"/><path d="m12.26,4.76c-.14,0-.27-.05-.38-.15l-3.73-3.73c-.18-.21-.17-.52.03-.72.19-.19.51-.21.72-.03l3.73,3.73c.15.15.19.38.11.57-.08.2-.27.33-.48.33Z"/><path d="m12.52,15.03c-.14,0-.27-.06-.38-.15l-3.73-3.73c-.18-.21-.17-.52.03-.72s.51-.21.72-.03l3.73,3.73c.15.15.2.38.12.58-.08.2-.28.33-.49.33h0Z"/><path d="m11.04,16.52c-.14,0-.27-.05-.38-.15l-3.74-3.74c-.18-.21-.17-.52.03-.72.2-.2.51-.21.72-.03l3.73,3.73h0c.15.15.2.38.12.58-.08.2-.28.33-.49.33h.01Z"/><path d="m9.56,18.01c-.14,0-.27-.05-.38-.15l-3.73-3.73c-.18-.21-.17-.52.03-.72.19-.19.51-.21.72-.03l3.73,3.73c.15.15.19.38.11.57-.08.19-.27.32-.48.33Z"/><path d="m10.83,10.04c-.21,0-.41-.13-.49-.33-.08-.2-.04-.43.12-.58l3.73-3.73c.21-.18.52-.17.72.03.19.19.21.51.03.72l-3.73,3.73c-.1.1-.23.16-.37.16Z"/><path d="m12.31,11.51c-.21,0-.41-.13-.49-.33-.08-.2-.04-.42.12-.58l3.74-3.74c.21-.21.54-.21.75,0,.21.21.21.54,0,.75l-3.73,3.73h0c-.1.1-.24.16-.38.16Z"/><path d="m13.79,13c-.21,0-.41-.13-.49-.33-.08-.2-.04-.42.12-.58l3.73-3.73c.21-.18.52-.17.72.03.19.19.21.51.03.72l-3.73,3.73c-.1.1-.23.16-.37.16Z"/></g></svg>