<?xml version="1.0" encoding="UTF-8"?><svg id="Layer_2" xmlns="http://www.w3.org/2000/svg" viewBox="0 0 14.15 20.95"><g id="Layer_1-2"><path d="m6.9,9.92h0c.1,0,.2.01.31.01s.21,0,.31-.01c1.15-.09,2.14-.74,2.72-1.77.59-1.07.61-2.36.05-3.46L7.71.31c-.08-.14-.2-.24-.33-.28-.25-.08-.53.03-.66.25l-2.6,4.44c-.55,1.08-.53,2.36.06,3.43.57,1.03,1.56,1.68,2.72,1.77Zm-1.79-4.66l2.09-3.58,2.08,3.56c.38.74.36,1.62-.05,2.36-.39.69-1.05,1.13-1.82,1.19-.14.01-.3.01-.43,0-.77-.06-1.43-.5-1.82-1.19-.41-.73-.43-1.61-.06-2.33Z"/><path d="m13.88,15.83l-1.42-.91c-.24-.15-.54-.11-.72.09-.12.12-.17.29-.15.46.02.17.12.32.26.41l.66.42-5.44,3.4-5.44-3.4.92-.59c.15-.09.24-.25.26-.42.02-.17-.04-.34-.17-.47-.19-.19-.48-.22-.71-.08l-1.68,1.08C.1,15.94,0,16.12,0,16.31c0,.2.1.38.27.48l6.5,4.07c.09.06.2.09.3.09s.21-.03.3-.09l6.5-4.07c.17-.1.27-.28.27-.48,0-.2-.1-.38-.26-.48Z"/><path d="m9.41,13.64h0c.1.1.22.15.36.15s.26-.05.36-.15c.1-.09.15-.22.15-.36v-1.88c0-.17-.07-.34-.19-.46-.13-.12-.3-.18-.47-.16l-1.88.13c-.13,0-.26.07-.35.17-.09.1-.13.23-.12.37,0,.14.07.26.17.35.11.09.24.14.37.12l.71-.05-.96,1.03c-.06.07-.06.17,0,.24l.48.48c.06.06.18.06.24,0l.97-1.04v.72c0,.13.05.26.15.36Z"/><path d="m5.08,16.28c.1.1.22.15.37.15.14,0,.27-.06.36-.16l1.21-1.3c.06-.07.06-.17,0-.24l-.48-.48s-.07-.05-.11-.05c0,0-.01,0-.02,0-.06,0-.09.03-.11.05l-.87.93L.89,10.67c-.1-.1-.23-.15-.36-.15-.13,0-.26.06-.35.15-.2.2-.2.52,0,.72l4.91,4.89Z"/><path d="m11.65,11.93l.71-.05-3.09,3.31-4.53-4.52c-.09-.09-.22-.14-.36-.14h0c-.14,0-.27.05-.36.15-.1.1-.15.22-.15.36s.05.26.15.36l4.91,4.89c.1.1.22.15.37.15.14,0,.27-.06.36-.16l3.45-3.7v.72c0,.14.05.26.15.36.1.1.22.15.36.15.28,0,.51-.23.51-.51v-1.88c0-.17-.07-.34-.19-.46-.13-.12-.3-.18-.47-.17l-1.88.13c-.13,0-.26.07-.35.17s-.13.23-.12.37c0,.14.07.26.17.35.11.09.24.14.37.12Z"/></g></svg>